<svg xmlns="http://www.w3.org/2000/svg" viewBox="0 0 100 100" role="img" aria-label="Dice">
  <g fill="#1C8CA8">
    <path d="M50 6 L92 28 L92 72 L50 94 L8 72 L8 28 Z"/>
  </g>
  <g fill="#FFFFFF">
    <path d="M50 13 L84 30 L50 47 L16 30 Z"/>
    <path d="M14 35 L46 51 L46 87 L14 70 Z"/>
    <path d="M86 35 L54 51 L54 87 L86 70 Z"/>
  </g>
  <g fill="#1C8CA8">
    <circle cx="50" cy="30" r="4.5"/>
    <circle cx="22" cy="45" r="3.2"/>
    <circle cx="22" cy="64" r="3.2"/>
    <circle cx="38" cy="58" r="3.2"/>
    <circle cx="38" cy="77" r="3.2"/>
    <circle cx="62" cy="58" r="3.2"/>
    <circle cx="78" cy="45" r="3.2"/>
    <circle cx="78" cy="64" r="3.2"/>
    <circle cx="62" cy="77" r="3.2"/>
    <circle cx="78" cy="83" r="3.2"/>
  </g>
</svg>
